# xmcd CD database file
# Copyright (C) 1997 Ti Kan
#
# Track frame offsets:
#  150
#  18073
#  34115
#  46795
#  64713
#  74423
#  97478
#  109975
#  127810
#  141768
#  156470
#  173738
#
# Disc length: 2678 seconds
#
# Revision: 1
# Processed by: cddbd v1.4b41PL1 Copyright (c) Steve Scherf et al.
# Submitted via: CDWizzard Release:4.20
#
DISCID=a40a740c
DTITLE=Sonny Terry and Brownie McGhee - Sonny and Brownie
DYEAR=1900
DGENRE=
TTITLE0=People get ready
TTITLE1=Bring it on home to me
TTITLE2=You bring out the boogie in me
TTITLE3=Sail away
TTITLE4=Sonny's thing
TTITLE5=White boy lost in the blues
TTITLE6=The battle is over
TTITLE7=Walkin' my blues away
TTITLE8=Big wind
TTITLE9=Jesus gonna' make it alright
TTITLE10=God and man
TTITLE11=On the road again
EXTD=
EXTT0=
EXTT1=
EXTT2=
EXTT3=
EXTT4=
EXTT5=
EXTT6=
EXTT7=
EXTT8=
EXTT9=
EXTT10=
EXTT11=
PLAYORDER=
